<svg width="512" height="512" viewBox="0 0 512 512" xmlns="http://www.w3.org/2000/svg" role="img" aria-label="Order2Books logo">
  <defs>
    <linearGradient id="cart" x1="0" y1="0" x2="1" y2="1">
      <stop offset="0%" stop-color="#f59e0b"/>
      <stop offset="100%" stop-color="#f97316"/>
    </linearGradient>
    <linearGradient id="bookL" x1="0" y1="0" x2="1" y2="1">
      <stop offset="0%" stop-color="#0ea5e9"/>
      <stop offset="100%" stop-color="#2563eb"/>
    </linearGradient>
    <linearGradient id="bookR" x1="0" y1="0" x2="1" y2="1">
      <stop offset="0%" stop-color="#84cc16"/>
      <stop offset="100%" stop-color="#16a34a"/>
    </linearGradient>
  </defs>

  <rect x="0" y="0" width="512" height="512" rx="72" fill="#ffffff"/>

  <path d="M70 200h120c10 0 18 8 18 18v18h182l16-18 24 20-28 34a18 18 0 0 1-14 6H186a18 18 0 0 1-18-18v-24H86l-16-36z" fill="url(#cart)"/>
  <circle cx="150" cy="312" r="16" fill="#2563eb"/>
  <circle cx="208" cy="312" r="16" fill="#2563eb"/>

  <path d="M206 120c-34 0-62 14-82 34v136c20-20 48-34 82-34 35 0 63 14 83 34V154c-20-20-48-34-83-34z" fill="url(#bookL)"/>
  <path d="M306 120c34 0 62 14 82 34v136c-20-20-48-34-82-34-35 0-63 14-83 34V154c20-20 48-34 83-34z" fill="url(#bookR)"/>
  <path d="M256 154v168" stroke="#ffffff" stroke-width="10" stroke-linecap="round"/>

  <circle cx="360" cy="232" r="36" fill="#f59e0b"/>
  <path d="M343 232l12 12 22-24" stroke="#ffffff" stroke-width="10" stroke-linecap="round" stroke-linejoin="round" fill="none"/>
</svg>
